# xmcd
#
# Track frame offsets: 
#        183
#        17618
#        35330
#        57630
#        76380
#        91385
#        110455
#        127345
#        144528
#        159553
#        177920
#        195318
#        219830
#        238405
#        255428
#        271563
#
# Disc length: 3867 seconds
#
# Revision: 5
# Processed by: cddbd v1.5.2PL0 Copyright (c) Steve Scherf et al.
# Submitted via: ExactAudioCopy v1.3
#
DISCID=d90f1910
DTITLE=Various Artist - Deep Heat 8 - The Hand Of Fate [CD2)
DYEAR=1990
DGENRE=Electronic
TTITLE0=Titiyo - Flowers
TTITLE1=Mike 'Hitman' Wilson feat. Shawn Christopher - Another Sleeple
TTITLE1=ss Night
TTITLE2=The She Rockers - Hands Across The Ocean
TTITLE3=Johnny Gill - Rub You The Right Way
TTITLE4=Rick James - Super Freak
TTITLE5=The Wee Papa Girl Rappers - The Bump
TTITLE6=Sons Of Soul - Madness
TTITLE7=DNA - Serenissima
TTITLE8=F.A.B. feat. MC Number 6 - The Prisoner
TTITLE9=Earth People - Dance (Club Mix)
TTITLE10=Lee Marrow - Movin' (Pain Mix)
TTITLE11=L.U.P.O. - Hell Or Heaven
TTITLE12=LFO - LFO
TTITLE13=Rhythmatic - Frequency (Depth Mix)
TTITLE14=Nexus 21 - Self Hypnosis
TTITLE15=Fade II Black - In Sync
EXTD=
EXTT0=
EXTT1=
EXTT2=
EXTT3=
EXTT4=
EXTT5=
EXTT6=
EXTT7=
EXTT8=
EXTT9=Club Mix
EXTT10=Pain Mix
EXTT11=
EXTT12=
EXTT13=Depth Mix
EXTT14=
EXTT15=
PLAYORDER=
